<svg height="554pt" viewBox="-17 -45 554.66648 554" width="554pt" xmlns="http://www.w3.org/2000/svg"><path style="fill:#de3b3b;" d="m201.289062 211.769531h117.382813v24.976563h-117.382813zm0 0"/><path style="fill:#de3b3b;" d="m108.878906 210.664062v23.023438c0 8.492188 6.296875 15.546875 14.789063 15.546875h6.4375v-53.699219h-6.4375c-3.988281-.035156-7.824219 1.5625-10.613281 4.414063-2.792969 2.855469-4.300782 6.722656-4.175782 10.714843zm0 0"/><path style="fill:#de3b3b;" d="m150.085938 173.273438v101.964843c-.046876 4.035157 1.527343 7.917969 4.371093 10.78125 2.851563 2.855469 6.722657 4.453125 10.761719 4.421875h16.089844v-132.371094h-16.089844c-4.035156-.027343-7.910156 1.5625-10.761719 4.425782-2.84375 2.859375-4.417969 6.742187-4.371093 10.777344zm0 0"/><path style="fill:#de3b3b;" d="m396.292969 195.535156h-6.441407v53.699219h6.441407c8.492187 0 14.789062-7.054687 14.789062-15.546875v-23.019531c.121094-3.992188-1.386719-7.859375-4.175781-10.714844s-6.625-4.453125-10.613281-4.417969zm0 0"/><path style="fill:#de3b3b;" d="m516.226562 119.039062c-7.242187-35.847656-23.429687-65.964843-46.828124-87.101562-23.257813-21.011719-52.605469-32.117188-84.863282-32.117188-37.269531 0-78.3125 15.492188-118.703125 44.808594-3.535156 2.566406-8.335937 2.535156-11.835937-.078125-40.992188-30.582031-81.117188-46.082031-119.273438-46.082031-32.34375 0-61.644531 11.148438-84.742187 32.253906-23.355469 21.324219-39.351563 51.847656-46.25 88.242188-21.515625 112.113281 48.355469 261.546875 252.867187 342.808594 1.09375.382812 2.226563.632812 3.378906.761718 1.128907-.128906 2.246094-.375 3.324219-.746094 94.824219-38.480468 168.140625-94.46875 212.039063-161.925781 37.738281-58 52.253906-122.210937 40.886718-180.824219zm-85.164062 114.648438c0 19.511719-15.257812 35.527344-34.769531 35.527344h-6.441407v6.023437c.046876 9.332031-3.636718 18.296875-10.226562 24.902344-6.597656 6.605469-15.546875 10.308594-24.878906 10.28125h-26.210938c-2.613281.039063-5.136718-.972656-6.988281-2.816406-1.859375-1.847657-2.894531-4.359375-2.875-6.972657v-43.90625h-117.382813v43.902344c.019532 2.617188-1.015624 5.128906-2.871093 6.976563-1.859375 1.84375-4.378907 2.855469-6.992188 2.816406h-26.207031c-9.332031.027344-18.289062-3.675781-24.882812-10.28125-6.589844-6.605469-10.273438-15.570313-10.230469-24.902344v-6.023437h-6.4375c-19.507813 0-34.769531-16.015625-34.769531-35.527344v-23.023438c-.117188-9.289062 3.496093-18.234374 10.03125-24.835937 6.539062-6.601563 15.449218-10.300781 24.738281-10.273437h6.4375v-2.28125c-.042969-9.332032 3.640625-18.292969 10.234375-24.898438 6.589844-6.605469 15.546875-10.308594 24.878906-10.28125h26.207031c2.613281-.046875 5.132813.972656 6.992188 2.8125 1.855469 1.84375 2.890625 4.355469 2.871093 6.976562v43.90625h117.382813v-43.90625c-.019531-2.621093 1.015625-5.132812 2.875-6.976562 1.851563-1.839844 4.375-2.859375 6.988281-2.8125h26.210938c9.332031-.027344 18.285156 3.675781 24.878906 10.28125 6.589844 6.605469 10.273438 15.566406 10.226562 24.898438v2.28125h6.441407c9.285156-.027344 18.199219 3.671874 24.734375 10.273437 6.539062 6.605469 10.152344 15.550781 10.035156 24.839844zm0 0"/><path style="fill:#de3b3b;" d="m354.746094 158.070312h-16.09375v132.371094h16.09375c4.035156.03125 7.90625-1.566406 10.753906-4.421875 2.84375-2.859375 4.421875-6.746093 4.371094-10.78125v-101.964843c.050781-4.035157-1.527344-7.917969-4.371094-10.777344-2.847656-2.863282-6.71875-4.453125-10.753906-4.425782zm0 0"/></svg>
